<?xml version="1.0" standalone="no"?><!DOCTYPE svg PUBLIC "-//W3C//DTD SVG 1.1//EN" "http://www.w3.org/Graphics/SVG/1.1/DTD/svg11.dtd"><svg t="1556092303567" class="icon" style="" viewBox="0 0 1040 1024" version="1.1" xmlns="http://www.w3.org/2000/svg" p-id="10454" xmlns:xlink="http://www.w3.org/1999/xlink" width="203.125" height="200"><defs><style type="text/css"></style></defs><path d="M4.376 407.063C174.417 519.78 344.468 632.497 514.519 745.215c-1.94 20.408-3.89 40.813-5.83 61.218-104.257-76.264-208.52-152.53-312.78-228.792-7.443-5.421-20.28-8.146-29.048-11.346-1.221 56.74-2.432 113.48-3.644 170.22C270 810.687 376.175 891.906 486.627 960.183c18.402 11.395 36.457 13.01 54.104 0.296 106.894-77.099 213.786-154.199 320.69-231.298V522.207c52.115-33.779 104.24-67.558 156.356-101.338 9.434-6.042 7.399-30.354-1.63-36.525a37701143.122 37701143.122 0 0 0-466.47-322.49c-18.537-12.813-50.832-6.922-68.579 4.496-156.474 100.94-312.96 201.88-469.436 302.814L0.002 385.2c1.46 7.288 2.916 14.575 4.374 21.862z m362.168-168.767l145.762 91.584v-99.257l241.953 158.89-241.953 164.596V452.34L366.544 555.706v-317.41z" p-id="10455"></path></svg>