<?xml version="1.0" standalone="no"?><!DOCTYPE svg PUBLIC "-//W3C//DTD SVG 1.1//EN" "http://www.w3.org/Graphics/SVG/1.1/DTD/svg11.dtd"><svg t="1556092323126" class="icon" style="" viewBox="0 0 1024 1024" version="1.1" xmlns="http://www.w3.org/2000/svg" p-id="10592" xmlns:xlink="http://www.w3.org/1999/xlink" width="200" height="200"><defs><style type="text/css"></style></defs><path d="M512 68.266667L0 307.2l136.533333 61.44v116.053333c-40.96 13.653333-68.266667 54.613333-68.266666 95.573334s27.306667 81.92 68.266666 95.573333v6.826667l-61.44 143.36C54.613333 887.466667 68.266667 955.733333 170.666667 955.733333s116.053333-68.266667 95.573333-129.706666L204.8 682.666667c40.96-20.48 68.266667-54.613333 68.266667-102.4s-27.306667-81.92-68.266667-95.573334V402.773333L512 546.133333 1024 307.2 512 68.266667z m300.373333 443.733333l-307.2 136.533333L341.333333 573.44v6.826667c0 47.786667-20.48 88.746667-54.613333 122.88l40.96 95.573333v6.826667c6.826667 27.306667 13.653333 54.613333 6.826667 81.92 47.786667 20.48 102.4 34.133333 170.666666 34.133333 225.28 0 307.2-136.533333 307.2-204.8v-204.8z" fill="" p-id="10593"></path></svg>