<?xml version="1.0" standalone="no"?><!DOCTYPE svg PUBLIC "-//W3C//DTD SVG 1.1//EN" "http://www.w3.org/Graphics/SVG/1.1/DTD/svg11.dtd"><svg t="1559227178729" class="icon" style="" viewBox="0 0 1024 1024" version="1.1" xmlns="http://www.w3.org/2000/svg" p-id="1917" xmlns:xlink="http://www.w3.org/1999/xlink" width="200" height="200"><defs><style type="text/css"></style></defs><path d="M769.5 232.2l-198.6 59.6c-17.1 5.1-28.9 20.9-28.9 38.8v503.7c0 27.2 26.2 46.6 52.2 38.8l194.5-58.3c48.4-14.5 87.9-67.7 87.9-118.2V311.9c0-61.5-48.2-97.4-107.1-79.7zM247.5 232.2c-58.9-17.7-107.2 18.2-107.2 79.7v384.7c0 50.5 39.6 103.7 87.9 118.2l194.5 58.3c26 7.8 52.2-11.7 52.2-38.8V330.6c0-17.9-11.7-33.7-28.9-38.8l-198.5-59.6z" p-id="1918"></path></svg>