<?xml version="1.0" standalone="no"?><!DOCTYPE svg PUBLIC "-//W3C//DTD SVG 1.1//EN" "http://www.w3.org/Graphics/SVG/1.1/DTD/svg11.dtd"><svg t="1556098046588" class="icon" style="" viewBox="0 0 1024 1024" version="1.1" xmlns="http://www.w3.org/2000/svg" p-id="1975" xmlns:xlink="http://www.w3.org/1999/xlink" width="200" height="200"><defs><style type="text/css"></style></defs><path d="M64 128v768h896V128H64z m832 704H128V192h768v640z" p-id="1976"></path><path d="M544 416h256v64h-256zM544 288h256v64h-256zM544 544h256v64h-256zM224 672h576v64H224zM431.36 507.168c-33.504-13.92-41.44-17.312-41.44-17.312l-0.288-31.328s12.576-9.248 16.48-39.456c7.84 2.272 10.496-9.056 10.944-16.352 0.448-7.136 4.608-29.12-4.96-27.168 1.984-14.72 3.52-28.032 2.816-35.072-2.432-24.768-19.52-50.624-62.656-52.48-36.672 1.888-60.512 27.808-62.912 52.544-0.672 7.04 0.704 20.352 2.688 35.136-9.6-1.984-5.44 20.128-5.056 27.232 0.48 7.328 3.072 18.848 10.912 16.576 3.904 30.176 16.448 39.776 16.448 39.776l-0.288 32.064s-7.968 2.56-41.44 16.48C239.84 521.376 224 544 224 576h256c0-32-15.872-55.232-48.64-68.832z" p-id="1977"></path></svg>